<svg width="114" height="119" viewBox="0 0 114 119" fill="none" xmlns="http://www.w3.org/2000/svg">
<path d="M113.998 86.436V62.1571C113.998 62.1571 113.998 62.1525 113.998 62.1479C113.998 62.0969 113.991 62.046 113.986 61.995V61.041L110.971 59.5475L105.77 56.91L111.064 54.2263L111.194 54.1614L113.047 53.2236C113.114 53.1889 113.177 53.1495 113.24 53.1078L114 52.7165V51.693C114 51.693 114 51.6814 114 51.6768L113.977 26.261L92.1169 15.2249L83.9732 19.3907V15.1022L83.9825 10.999L62.0785 0L56.3781 2.94079C56.3618 2.94773 0 31.5012 0 31.5012L0.0395212 57.9474L2.36662 59.089L8.27155 62.083L0 66.2488L0.0395212 92.6695L21.8622 103.74L30.0686 99.6047L30.064 107.911L48.8389 117.407L51.8704 119L55.0112 117.402L111.066 88.9878L111.25 88.8951L113.047 87.9851C113.112 87.9527 113.175 87.9133 113.233 87.874L114 87.478V86.4522C114 86.4522 114 86.4406 114 86.436H113.998ZM108.414 62.1479L99.7119 66.5591C99.612 66.61 99.5167 66.6702 99.4306 66.7374L51.9215 90.7823L35.6528 82.5389L42.1389 79.2507L48.7203 82.5875L51.8681 84.2408L54.9182 82.6871L101.925 58.8597L108.409 62.1479H108.414ZM33.5535 71.0027V50.6116L50.1779 59.038V79.429L33.5535 71.0027ZM110.513 50.614L53.6651 79.429V59.038L110.513 30.223V50.614ZM92.1448 19.1452L108.414 27.391L51.9215 56.0278L35.6528 47.782L92.1448 19.1452ZM80.486 21.1598L33.421 45.0172L33.4465 44.9778L30.0384 46.6891L30.0663 50.2805V50.2759L30.0686 60.9507L23.6406 64.2087V43.82L80.486 15.0026V21.1575V21.1598ZM56.2549 6.8958C56.2712 6.88885 56.2898 6.88191 56.3061 6.87264L62.1203 3.92491L78.3891 12.1707L21.8994 40.8075L5.63061 32.5617L56.2549 6.8958ZM3.52901 55.7823V35.3937L20.1535 43.82V64.2087L3.52901 55.7823ZM20.1535 91.1528V98.9679L3.52668 90.5415V70.1505L20.1535 78.5769V91.1528ZM5.62828 67.3186L12.1144 64.0304L21.1043 68.5875C21.1857 68.6292 21.267 68.6593 21.3531 68.6871L21.8599 68.9464L22.2969 68.7288C22.4294 68.6963 22.5619 68.65 22.6852 68.5875L30.0663 64.8455V71.4195L21.8947 75.562L5.62596 67.3162L5.62828 67.3186ZM30.0663 85.0281V85.0235L30.0686 95.7076L23.6406 98.9656V78.5746L32.226 74.2213L38.3007 77.301L33.6976 79.6328L33.7139 79.6097L30.0407 81.4343L30.0686 85.0258L30.0663 85.0281ZM33.5535 85.3708L50.1779 93.7949V114.188L33.5535 105.76V85.3708ZM110.513 85.3731L53.6651 114.188V93.7949L102.736 68.9603C102.841 68.9071 102.936 68.8468 103.025 68.7774L110.513 64.9821V85.3731Z" fill="black"/>
</svg>
