<svg viewBox="0 0 449.1 85.04" fill="none" xmlns="http://www.w3.org/2000/svg">
<g>
<path d="M 45.768185402843606,0.33115001200000005 C 36.84535592417062,0.33115001200000005 30.344899478672986,2.441073200000001 24.837996966824647,7.304276940000001 L 15.101530251184835,15.743944180000002 C 14.287786592417062,16.396775 12.669770815165876,16.87931322 11.534314052132702,15.904776080000003 C 10.398857289099526,14.930260200000003 10.238011379146919,13.634016740000002 11.2126009478673,12.33779454 L 16.407304464454977,4.55097938 C 17.22102683886256,3.4156103400000006 16.568150374407583,1.9585286020000003 15.110980507109005,1.9585286020000003 L 2.5926266303317536,1.9585286020000003 C 1.135452506161138,1.9585286020000003 8.881784197001252e-16,3.093904020000001 0.0,4.55097938 L 0.0,80.4984388 C 0.0,81.95559920000001 1.1354525061611376,83.09088320000001 2.5926266303317536,83.09088320000001 L 15.574639009478673,83.09088320000001 C 17.03178759241706,83.09088320000001 18.167244355450237,81.95559920000001 18.167244355450237,80.4984388 L 18.167244355450237,37.656775 C 18.167244355450237,18.02416422 34.5555844549763,14.939720900000001 40.72485625592417,14.939720900000001 C 53.86773582938388,14.939720900000001 58.57988033175356,24.3539678 58.57988033175356,31.487973400000005 L 58.57988033175356,80.4984388 C 58.57988033175356,81.95559920000001 59.7154009478673,83.09088320000001 61.1725282464455,83.09088320000001 L 74.15449805687204,83.09088320000001 C 75.61162535545024,83.09088320000001 76.74714597156398,81.95559920000001 76.74714597156398,80.4984388 L 76.74714597156398,29.860520400000006 C 76.7660890521327,11.684963720000002 64.9100618957346,0.33115001200000194 45.7681854028436,0.3311500120000055" fill="black"/>
<path d="M 129.66879199052133,0.0 C 104.50897549763033,0.0 88.44226336492892,15.422259120000001 88.44226336492892,36.35119840000001 L 88.44226336492892,47.8751814 C 88.44226336492892,69.94880160000001 104.50897549763035,85.04000000000002 129.65921402843603,85.04000000000002 C 151.89519796208532,85.04000000000002 167.4698156872038,73.51580440000002 169.09743071090048,57.94221660000001 C 169.25812763033178,56.31497620000001 168.12281985781993,55.189046600000005 166.50478279620856,55.189046600000005 L 153.84441966824647,55.189046600000005 C 152.70889905213272,55.189046600000005 151.73428819905217,55.84172860000001 151.4126815165877,56.97722520000001 C 149.78527933649292,62.17146840000001 142.15866739336494,69.95836860000001 129.66879199052133,69.95836860000001 C 117.17870374407582,69.95836860000001 105.4835863507109,60.86589180000001 105.64449611374408,47.88474840000001 L 105.80540587677726,33.44644460000001 C 105.96610279620853,22.575143600000004 117.3302483886256,15.1100135 129.65921402843603,15.1100135 C 140.8624498578199,15.1100135 151.73428819905214,21.439859600000002 152.8604436966825,31.828558600000004 C 152.9549462559242,33.03017380000001 152.13188004739337,34.10869360000001 150.94910815165878,34.345317400000006 L 114.55774763033176,41.40363740000001 C 113.10062033175357,41.725301200000004 111.96509971563982,43.030877800000006 111.96509971563981,44.648763800000005 L 111.96509971563981,44.80970200000001 C 111.96509971563981,46.2668624 113.42222701421801,47.5630846 115.53235848341234,47.5630846 L 167.79163521327015,47.5630846 C 169.22981943127965,47.5630846 170.3842831279621,46.399312200000004 170.3842831279621,44.97042760000001 L 170.3842831279621,34.7520212 C 170.39364824644554,15.42225912 153.68350990521327,-7.105427357601002e-15 129.65921402843603,0.0 L 129.66879199052133,0.0" fill="black"/>
<path d="M 220.22076113744077,0.0 C 199.9342117535545,0.0 182.4103723222749,11.845795619999999 182.4103723222749,27.428801600000003 C 182.4103723222749,28.725023800000002 183.54589293838865,29.699582200000002 185.00302023696685,29.699582200000005 L 198.14589981042656,29.699582200000005 C 199.44233018957348,29.699582200000005 200.41694104265406,28.725023800000006 200.5776379620853,27.428801600000003 C 201.87406834123223,20.285462860000003 210.4750782938389,15.1005528 219.72909241706162,15.100552800000003 C 230.76077630331756,15.100552800000003 238.22732985781994,21.912894600000005 238.22732985781994,33.59781580000001 L 238.22732985781994,47.71445580000001 C 238.22732985781994,62.15254700000001 227.51703981042658,69.45684520000002 214.20367251184834,69.45684520000002 C 203.81371208530805,69.45684520000002 197.81471516587678,65.55882420000002 197.81471516587678,59.22908440000001 C 197.81471516587678,53.71296480000001 200.7385477251185,49.00111100000001 212.74590668246447,46.247941000000004 L 230.1094748815166,41.545441600000004 C 231.89736113744078,41.062839600000004 232.5401488151659,39.596324800000005 232.21875497630333,37.978438800000006 C 232.05912227488156,36.682216600000004 230.60114360189576,36.029322 229.29428388625593,36.029322 L 211.27941426540286,36.029322 C 196.02640322274883,36.029322 180.6031172985782,45.765339 180.6031172985782,60.04270460000001 L 180.6031172985782,62.31348520000001 C 180.6031172985782,76.92208160000003 194.39900104265402,84.5480436 210.1438936492891,84.54804360000001 C 220.20160521327014,84.54804360000001 228.8026151658768,80.64981000000002 234.15776018957348,76.10824880000001 L 242.115982464455,69.29611960000001 C 243.4122,68.160623 244.70841753554504,68.160623 245.84500236966826,69.29611960000001 C 246.8198260663507,70.270678 246.4877900473934,71.72762580000001 245.68324123222752,72.86312240000001 L 240.81976492891,80.48908440000001 C 240.00670236966826,81.62436840000001 240.6601322274882,83.08152880000002 242.115982464455,83.08152880000002 L 253.80109620853082,83.08152880000002 C 255.2590748815166,83.08152880000002 256.39565971563985,81.9460322 256.39565971563985,80.48908440000001 L 256.39565971563985,31.317680800000005 C 256.39565971563985,12.4986477 242.9205312796209,-3.552713678800501e-15 220.20160521327014,0.0 L 220.22076113744075,0.0" fill="black"/>
<path d="M 326.5169843601896,1.9490062480000003 L 308.34014075829384,1.9490062480000003 C 302.01017203791474,1.9490062480000003 295.84196445497633,5.8471378000000005 291.4595146919432,9.574972500000001 L 284.3164834123223,15.743880400000004 C 283.5034208530806,16.396732480000004 282.0454421800948,16.879270700000003 281.0706184834124,16.065565460000002 C 279.93616208530807,15.251881480000003 279.4444933649289,13.63397422 280.4278308056872,12.328270060000001 L 285.6233431279621,4.5414549000000015 C 286.4364056872038,3.406085860000001 285.78297582938393,1.9490062480000008 284.3249971563981,1.9490062480000003 L 272.15672843601897,1.9490062480000003 C 270.70087819905217,1.9490062480000003 269.5642933649289,3.0843795400000005 269.5642933649289,4.5414549000000015 L 269.5642933649289,80.48887180000001 C 269.5642933649289,81.94603220000002 270.70087819905217,83.08131620000002 272.15672843601897,83.0813162 L 285.4700957345972,83.0813162 C 286.9280744075829,83.0813162 288.06253080568723,81.9460322 288.06253080568723,80.48887180000001 L 288.06253080568723,41.545441600000004 C 288.06253080568723,24.8270028 294.8756545023697,17.36178766 309.64700047393364,17.361787660000005 L 326.5276265402844,17.361787660000005 C 327.9834767772512,17.361787660000005 329.12006161137447,16.226418620000004 329.1200616113744,14.769343260000001 L 329.1200616113744,4.550915600000001 C 329.1200616113744,3.0938402400000005 327.9834767772512,1.9584669480000003 326.5276265402844,1.9584669480000003 L 326.51698436018967,1.9490062480000003" fill="black"/>
<path d="M 399.30098246445505,3.8981910800000006 L 427.61130995260663,80.22418480000002 C 428.1221345971564,81.77573960000001 427.15795308056875,83.09088320000001 425.6063232227488,83.09088320000001 L 413.8530995260664,83.09088320000001 C 412.7654687203792,83.09088320000001 411.9034521327015,82.51388680000001 411.5629023696683,81.48256420000001 L 405.6032815165877,64.63167560000001 C 405.43300663507114,64.17734940000001 405.0243469194313,63.94093820000001 404.5709900473934,63.94093820000001 L 372.5316426540285,63.94093820000001 C 372.07828578199053,63.94093820000001 371.6717545023697,64.167995 371.5014796208531,64.63167560000001 L 365.59719810426543,81.35946880000002 C 365.1991805687204,82.50431980000002 364.39463175355456,83.08152880000002 363.24953317535545,83.08152880000002 L 351.5559056872038,83.08152880000002 C 349.94680805687204,83.08152880000002 348.9719843601896,81.70962100000001 349.5487905213271,80.21461780000001 L 377.8037786729858,3.8887303800000006 C 378.32311706161147,2.5735867800000007 379.2979407582939,1.9396646040000005 380.67078199052133,1.9396646040000003 L 396.4233369668247,1.9396646040000003 C 397.7961781990522,1.9396646040000003 398.8284696682465,2.5735867800000007 399.29034028436024,3.8887303800000006 L 399.300982464455,3.8981910800000006 M 377.00774360189575,52.0950788 L 400.1055312796209,52.0950788 C 400.7398052132702,52.0950788 401.0228872037915,51.7544936 400.8526123222749,51.12052040000001 L 389.15685639810425,16.567152640000003 C 388.87377440758297,15.819693560000005 388.2395004739337,15.819693560000005 388.01175781990526,16.567152640000003 L 376.3181303317536,51.12052040000001 C 376.0903876777252,51.7544936 376.37346966824646,52.0950788 377.00774360189575,52.0950788" fill="#0091FD"/>
<path d="M 435.5695322274882,1.9490062480000003 L 446.856628436019,1.9490062480000003 C 448.1166625592418,1.9490062480000003 449.0914862559242,2.9235476400000007 449.0914862559242,4.181927040000001 L 449.0914862559242,80.8579454 C 449.0914862559242,82.11632480000002 448.1166625592418,83.09088320000001 446.856628436019,83.09088320000001 L 435.5695322274882,83.09088320000001 C 434.3116265402844,83.09088320000001 433.3368028436019,82.11632480000002 433.3368028436019,80.8579454 L 433.3368028436019,4.191387740000001 C 433.3368028436019,2.9330083400000007 434.31162654028435,1.9584669480000003 435.5695322274882,1.9584669480000003 L 435.5695322274882,1.9490062480000003" fill="#0091FD"/>
</g>

</svg>
