<svg viewBox="0 0 103 103" fill="none" xmlns="http://www.w3.org/2000/svg">
<g>
<path d="M 88.7082,0.0 L 14.2918,0.0 C 6.3986600000000005,0.0 0.0,6.398662941176471 0.0,14.291855882352941 L 0.0,88.70814411764707 C 0.0,96.6013774509804 6.39866,103.0 14.2918,103.0 L 88.7082,103.0 C 96.6013,103.0 103.0,96.6013774509804 103.0,88.70814411764707 L 103.0,14.291855882352941 C 103.0,6.398662941176471 96.6013,0.0 88.7082,0.0" fill="#FDFDFD"/>
<path d="M 75.2172,21.36351274509804 C 72.9869,21.36351274509804 70.9099,22.520748039215686 69.7428,24.424632352941174 L 57.1423,43.12761470588235 C 56.7318,43.74581666666666 56.9,44.57658235294117 57.5132,44.98706764705882 C 58.0127,45.31838431372549 58.6753,45.2788 59.1303,44.88820784313725 L 71.533,34.13218039215686 C 71.7407,33.944255882352934 72.0572,33.96404803921568 72.2402,34.17176470588235 C 72.3242,34.265777450980394 72.3688,34.38937745098039 72.3688,34.512977450980394 L 72.3688,68.19024117647058 C 72.3688,68.46723039215685 72.1462,68.68969019607843 71.8643,68.68969019607843 C 71.716,68.68969019607843 71.5726,68.62546666666665 71.4786,68.51166176470589 L 33.9935,23.638399019607842 C 32.772,22.19932745098039 30.9818,21.368460784313726 29.0927,21.36351274509804 L 27.7822,21.36351274509804 C 24.2365,21.36351274509804 21.3633,24.236707843137257 21.3633,27.78253333333333 L 21.3633,75.21251862745098 C 21.3633,78.75834411764706 24.2365,81.63153921568627 27.7822,81.63153921568627 C 30.0126,81.63153921568627 32.089600000000004,80.47430392156862 33.2566,78.57041960784314 L 45.8572,59.867336274509796 C 46.2676,59.24923529411764 46.0995,58.418469607843136 45.4863,58.00798431372549 C 44.9868,57.67666764705882 44.3242,57.71615098039215 43.8692,58.10684411764706 L 31.4665,68.86277058823529 C 31.2588,69.05069509803923 30.9423,69.03100392156863 30.7593,68.82328725490196 C 30.6752,68.72927450980391 30.6307,68.6056745098039 30.6307,68.48207450980392 L 30.6307,34.79491470588235 C 30.6307,34.51792549019608 30.8532,34.295364705882356 31.1351,34.295364705882356 C 31.2835,34.295364705882356 31.4269,34.359689215686274 31.5209,34.4733931372549 L 69.001,79.35665294117648 C 70.2225,80.79572450980393 72.0127,81.6265911764706 73.9018,81.63153921568627 L 75.2123,81.63153921568627 C 78.758,81.63153921568627 81.6362,78.75834411764707 81.6362,75.21251862745098 L 81.6362,27.78748137254902 C 81.6362,24.24165588235294 78.763,21.368460784313726 75.2172,21.368460784313726 L 75.2172,21.363512745098035" fill="black"/>
</g>

</svg>
