<svg viewBox="0 0 103 103" fill="none" xmlns="http://www.w3.org/2000/svg">
<g>
<path d="M 88.7082,0.0 L 14.2918,0.0 C 6.3986600000000005,0.0 0.0,6.398662941176471 0.0,14.291855882352941 L 0.0,88.70814411764707 C 0.0,96.6013774509804 6.39866,103.0 14.2918,103.0 L 88.7082,103.0 C 96.6013,103.0 103.0,96.6013774509804 103.0,88.70814411764707 L 103.0,14.291855882352941 C 103.0,6.398662941176471 96.6013,0.0 88.7082,0.0" fill="#0091FD"/>
<path d="M 75.2172,21.363613725490193 C 72.9869,21.363613725490193 70.9099,22.52084901960784 69.7428,24.424733333333332 L 57.1423,43.12781666666667 C 56.7318,43.745917647058825 56.9,44.57678431372549 57.5132,44.987168627450984 C 58.0126,45.31848529411765 58.6753,45.27900196078431 59.1303,44.888308823529414 L 71.533,34.13238235294118 C 71.7407,33.94445784313725 72.0572,33.96425 72.2402,34.17186568627451 C 72.3242,34.26587843137255 72.3688,34.389478431372545 72.3688,34.51307843137255 L 72.3688,68.19034215686274 C 72.3688,68.46733137254901 72.1462,68.68989215686274 71.8643,68.68989215686274 C 71.716,68.68989215686274 71.5726,68.62556764705882 71.4786,68.51186372549019 L 33.9935,23.638499999999997 C 32.772,22.199428431372546 30.9818,21.36856176470588 29.0927,21.363613725490193 L 27.7822,21.363613725490193 C 24.2365,21.363613725490193 21.3633,24.236909803921566 21.3633,27.782634313725488 L 21.3633,75.21261960784314 C 21.3633,78.7584450980392 24.2365,81.63164019607844 27.7822,81.63164019607844 C 30.0126,81.63164019607844 32.089600000000004,80.47440490196078 33.2566,78.57052058823528 L 45.8572,59.86753823529411 C 46.2676,59.24933627450981 46.0995,58.41857058823529 45.4863,58.00808529411764 C 44.9868,57.676768627450976 44.3242,57.71635294117647 43.8692,58.10694509803921 L 31.4665,68.8629725490196 C 31.2588,69.05089705882352 30.9423,69.03110490196077 30.7593,68.8233882352941 C 30.6752,68.72937549019608 30.6307,68.60577549019607 30.6307,68.48217549019608 L 30.6307,34.79501568627451 C 30.6307,34.51802647058823 30.8532,34.295566666666666 31.1351,34.295566666666666 C 31.2835,34.295566666666666 31.4269,34.35979019607843 31.5209,34.47359509803921 L 69.001,79.35675392156863 C 70.2225,80.79582549019608 72.0127,81.62669215686275 73.9018,81.63164019607844 L 75.2123,81.63164019607844 C 78.758,81.63164019607844 81.6362,78.75844509803922 81.6362,75.21261960784314 L 81.6362,27.787582352941175 C 81.6362,24.241857843137254 78.763,21.36856176470588 75.2172,21.368561764705884 L 75.2172,21.363613725490197" fill="#FDFDFD"/>
</g>

</svg>
