<svg xmlns="http://www.w3.org/2000/svg" viewBox="0.00 0.00 138.19 65.00" fill="none">
<g>
<path d="M 108.13599957656542,9.306122020187598 L 125.21916662362646,55.45301830294359 C 125.52805692288725,56.38746622599102 124.94423235017094,57.18422794117646 124.00551254000605,57.18422794117646 L 116.91527528073279,57.18422794117646 C 116.25696652237913,57.18422794117646 115.74105400127334,56.84028626043927 115.5296503567438,56.21538585005531 L 111.93578839974155,46.02868764404333 C 111.83282496665461,45.753534299453584 111.5929420746755,45.610261777668796 111.31253102286429,45.61026177766879 L 91.97983203398809,45.61026177766879 C 91.7051168316668,45.61026177766879 91.45909994792932,45.74783844996366 91.35602697927527,46.02868764404333 L 87.79634011921249,56.14659751390787 C 87.55601908496492,56.84028626043927 87.06957163141273,57.18422794117646 86.3770877761196,57.18422794117646 L 79.32069700708446,57.18422794117646 C 78.35349794947003,57.18422794117646 77.76408706283091,56.3530720579173 78.10737153016541,55.45301830294359 L 95.15614440915273,9.306122020187598 C 95.46514424398063,8.50925076943504 96.05455513061973,8.130914920624132 96.88439658707354,8.130914920624132 L 106.39547941512788,8.130914920624132 C 107.22575901385012,8.130914920624132 107.85011174639854,8.50925076943504 108.12395066418291,9.306122020187598 L 108.13599957656542,9.306122020187598 M 94.68108865458038,38.43885866316422 L 108.61686071619481,38.43885866316422 C 109.00023520109293,38.43885866316422 109.1711106857904,38.23249365472191 109.06814725270347,37.84835242085397 L 102.0121946259368,16.959043487724227 C 101.84055239226954,16.506113917708856 101.4570683718043,16.506113917708856 101.31971077064365,16.959043487724227 L 94.26332000160852,37.84835242085397 C 94.12596240044788,38.22668826966488 94.29760463411512,38.438858663164226 94.68108865458038,38.43885866316422" fill="#0091FD"/>
<path d="M 130.02120588589344,8.124999999999991 L 136.83650887171115,8.124999999999991 C 137.59778106315173,8.124999999999991 138.18708241422377,8.715506242310239 138.18708241422377,9.477873789421963 L 138.18708241422377,55.83124461618738 C 138.18708241422377,56.593612163299106 137.59778106315173,57.184118405609354 136.83650887171115,57.18411840560935 L 130.02120588589344,57.18411840560935 C 129.25993369445285,57.18411840560935 128.67063234338082,56.593612163299106 128.67063234338082,55.83124461618738 L 128.67063234338082,9.477873789421963 C 128.67063234338082,8.715506242310237 129.2599336944528,8.12499999999999 130.02120588589344,8.12499999999999" fill="#0091FD"/>
<path d="M57.979 0C55.5756 0 53.3446 1.24557 52.0855 3.30234L38.522 23.4722C38.0779 24.1369 38.2608 25.0318 38.9243 25.4767C39.4625 25.8378 40.1731 25.7907 40.6642 25.3667L54.0134 13.7641C54.2328 13.5652 54.5777 13.5862 54.7762 13.806C54.865 13.9054 54.9173 14.0415 54.9173 14.1723V50.4928C54.9173 50.7911 54.6769 51.0318 54.3739 51.0318C54.2119 51.0318 54.0604 50.9638 53.9612 50.8382L13.6 2.44928C12.2834 0.900161 10.3554 0 8.32302 0H6.91234C3.09305 0 0 3.09823 0 6.92391V58.0761C0 61.9018 3.09305 65 6.91234 65C9.31572 65 11.5467 63.7544 12.8058 61.6977L26.3693 41.5278C26.8134 40.8631 26.6305 39.9682 25.967 39.5233C25.4288 39.1622 24.7183 39.2093 24.2271 39.6333L10.8779 51.2359C10.6585 51.4348 10.3136 51.4139 10.1151 51.194C10.0263 51.0946 9.97404 50.9585 9.97926 50.8277V14.4915C9.97926 14.1932 10.2196 13.9525 10.5226 13.9525C10.6794 13.9525 10.8361 14.0205 10.9354 14.1461L51.2913 62.5507C52.6079 64.1051 54.5359 65 56.5683 65H57.979C61.7983 65 64.8913 61.9018 64.8965 58.0813V6.92391C64.8965 3.09823 61.8035 0 57.9842 0H57.979Z" fill="#FDFDFD"/>
</g>

</svg>