<svg viewBox="0 0 290 136" fill="none" xmlns="http://www.w3.org/2000/svg">
<path d="M121.712 0C116.666 0 111.983 2.60612 109.34 6.9095L80.8669 49.1111C79.9346 50.5018 80.3185 52.3742 81.7114 53.305C82.8411 54.0606 84.3327 53.962 85.3637 53.075L113.387 28.7987C113.848 28.3826 114.571 28.4264 114.988 28.8863C115.175 29.0944 115.284 29.3791 115.284 29.6528V105.646C115.284 106.271 114.78 106.774 114.144 106.774C113.804 106.774 113.486 106.632 113.277 106.369L28.5496 5.12464C25.7857 1.88341 21.7385 0 17.472 0H14.5106C6.49304 0 0 6.48245 0 14.487V121.513C0 129.518 6.49304 136 14.5106 136C19.5559 136 24.2392 133.394 26.8825 129.091L55.3554 86.8889C56.2876 85.4982 55.9038 83.6258 54.5108 82.695C53.3811 81.9395 51.8895 82.038 50.8585 82.925L22.8353 107.201C22.3747 107.617 21.6508 107.574 21.234 107.114C21.0475 106.906 20.9379 106.621 20.9488 106.347V30.3208C20.9488 29.6966 21.4534 29.1929 22.0895 29.1929C22.4185 29.1929 22.7476 29.3353 22.956 29.5981L107.673 130.875C110.437 134.128 114.484 136 118.75 136H121.712C129.729 136 136.222 129.518 136.233 121.524V14.487C136.233 6.48245 129.74 0 121.723 0H121.712Z" fill="black"/>
<path d="M226.912 19.4708L262.773 116.025C263.422 117.98 262.197 119.647 260.226 119.647H245.341C243.96 119.647 242.878 118.928 242.434 117.62L234.889 96.3064C234.673 95.7306 234.168 95.4308 233.58 95.4308H192.997C192.42 95.4308 191.903 95.7186 191.687 96.3064L184.214 117.476C183.71 118.928 182.689 119.647 181.235 119.647H166.422C164.392 119.647 163.154 117.908 163.875 116.025L199.664 19.4708C200.313 17.8036 201.551 17.012 203.293 17.012H223.26C225.002 17.012 226.311 17.8036 226.888 19.4708H226.912ZM198.667 80.4259H227.921C228.726 80.4259 229.086 79.9941 228.87 79.1905L214.057 35.4832C213.697 34.5357 212.892 34.5357 212.603 35.4832L197.79 79.1905C197.502 79.9821 197.862 80.4259 198.667 80.4259Z" fill="#0091FD"/>
<path d="M272.855 17H287.163C288.761 17 289.999 18.2354 289.999 19.8307V116.817C289.999 118.412 288.761 119.647 287.163 119.647H272.855C271.257 119.647 270.02 118.412 270.02 116.817V19.8307C270.02 18.2354 271.257 17 272.855 17Z" fill="#0091FD"/>
</svg>
