<svg viewBox="-18.71 -18.71 486.52 122.46" fill="none" xmlns="http://www.w3.org/2000/svg">
<path d="M45.7673 0.328728C36.8404 0.328728 30.3487 2.43919 24.833 7.30627L15.094 15.743C14.2819 16.3943 12.6577 16.8807 11.524 15.9038C10.3873 14.931 10.2255 13.6336 11.1984 12.3351L16.3925 4.54555C17.2036 3.40788 16.5564 1.94868 15.094 1.94868H2.59708C1.13777 1.94868 0 3.08636 0 4.54555V80.4937C0 81.9529 1.13777 83.0906 2.59708 83.0906H15.5804C17.0397 83.0906 18.1765 81.9529 18.1765 80.4937V37.6526C18.1765 18.0173 34.569 14.9351 40.735 14.9351C53.8791 14.9351 58.5868 24.3477 58.5868 31.486V80.4937C58.5868 81.9529 59.7235 83.0906 61.1828 83.0906H74.1662C75.6255 83.0906 76.7632 81.9529 76.7632 80.4937V29.863C76.7632 11.6869 64.9136 0.328728 45.7642 0.328728H45.7673Z" fill="black"/>
<path d="M129.667 0.00312805C104.512 0.00312805 88.4453 15.4205 88.4453 36.3542V47.8773C88.4453 69.9465 104.512 85.0393 129.667 85.0393C151.9 85.0393 167.48 73.5162 169.103 57.937C169.268 56.314 168.13 55.1794 166.507 55.1794H153.848C152.712 55.1794 151.739 55.8307 151.413 56.9643C149.789 62.157 142.164 69.9465 129.667 69.9465C117.17 69.9465 105.485 60.8596 105.646 47.8773L105.811 33.4347C105.971 22.5629 117.334 15.099 129.667 15.099C140.865 15.099 151.739 21.4294 152.872 31.8148C152.966 33.0153 152.141 34.0994 150.957 34.3272L114.57 41.3892C113.11 41.7149 111.974 43.0123 111.974 44.6332V44.794C111.974 46.2532 113.433 47.5516 115.543 47.5516H167.801C169.237 47.5516 170.399 46.3872 170.399 44.9548V34.7332C170.399 15.4246 153.681 0.00621796 129.664 0.00621796L129.667 0.00312805Z" fill="black"/>
<path d="M220.22 0.0030899C199.933 0.0030899 182.407 11.8477 182.407 27.4269C182.407 28.7253 183.545 29.6981 185.004 29.6981H198.148C199.447 29.6981 200.42 28.7253 200.585 27.4269C201.883 20.2886 210.485 15.0959 219.734 15.0959C230.769 15.0959 238.236 21.9116 238.236 33.5965V47.7154C238.236 62.1569 227.524 69.4601 214.215 69.4601C203.829 69.4601 197.824 65.5658 197.824 59.2354C197.824 53.7171 200.745 49.0108 212.753 46.2531L230.117 41.5468C231.902 41.0604 232.553 39.5971 232.228 37.9772C232.067 36.6787 230.607 36.0285 229.305 36.0285H211.294C196.039 36.0285 180.619 45.7637 180.619 60.0434V62.3146C180.619 76.921 194.415 84.5457 210.156 84.5457C220.217 84.5457 228.819 80.6514 234.174 76.1089L242.128 69.2921C243.426 68.1555 244.725 68.1555 245.858 69.2921C246.831 70.2649 246.506 71.7282 245.694 72.8618L240.826 80.4906C240.014 81.6273 240.662 83.0865 242.125 83.0865H253.809C255.269 83.0865 256.406 81.9498 256.406 80.4906V31.3181C256.406 12.4959 242.937 0 220.214 0L220.22 0.0030899Z" fill="black"/>
<path d="M326.517 1.95238H308.341C302.013 1.95238 295.844 5.84666 291.462 9.58121L284.323 15.7467C283.511 16.397 282.048 16.8834 281.076 16.0723C279.938 15.2603 279.451 13.6362 280.427 12.3378L285.622 4.54925C286.433 3.41158 285.785 1.95238 284.323 1.95238H272.152C270.692 1.95238 269.555 3.09006 269.555 4.54925V80.4974C269.555 81.9566 270.692 83.0933 272.152 83.0933H285.46C286.92 83.0933 288.057 81.9566 288.057 80.4974V41.5505C288.057 24.8337 294.874 17.3698 309.642 17.3698H326.52C327.98 17.3698 329.117 16.2331 329.117 14.7739V4.54925C329.117 3.09006 327.98 1.95238 326.52 1.95238H326.517Z" fill="black"/>
<path d="M377.009 52.0926H400.103C400.734 52.0926 401.02 51.7484 400.848 51.1188L389.157 16.5649C388.871 15.8199 388.241 15.8199 388.012 16.5649L376.321 51.1188C376.092 51.7484 376.378 52.0926 377.009 52.0926ZM399.301 3.90003L427.612 80.2285C428.127 81.7752 427.153 83.0933 425.605 83.0933H413.857C412.768 83.0933 411.909 82.5203 411.565 81.4898L405.606 64.6421C405.432 64.1835 405.033 63.9547 404.574 63.9547H372.538C372.08 63.9547 371.68 64.1835 371.507 64.6421L365.604 81.3744C365.203 82.5203 364.401 83.0933 363.255 83.0933H351.564C349.959 83.0933 348.985 81.7186 349.558 80.2285L377.811 3.90003C378.327 2.58305 379.301 1.95238 380.677 1.95238H396.435C397.811 1.95238 398.843 2.58305 399.301 3.90003Z" fill="#FDFDFD"/>
<path d="M435.571 1.95238H446.861C448.122 1.95238 449.096 2.92621 449.096 4.18652V80.8591C449.096 82.1194 448.122 83.0933 446.861 83.0933H435.571C434.311 83.0933 433.336 82.1194 433.336 80.8591V4.18652C433.336 2.92621 434.311 1.95238 435.571 1.95238Z" fill="#FDFDFD"/>
</svg>
